<svg width="59" height="59" viewBox="0 0 59 59" fill="none" xmlns="http://www.w3.org/2000/svg">
<circle cx="29.5" cy="29.5" r="29" stroke="#616161"/>
<path d="M23.3397 30.5015L35.5114 42.1171C35.7144 42.311 35.9843 42.4192 36.2648 42.4192C36.5454 42.4192 36.8152 42.311 37.0183 42.1171L37.0314 42.104C37.1302 42.01 37.2089 41.8968 37.2627 41.7714C37.3164 41.646 37.3441 41.5109 37.3441 41.3744C37.3441 41.238 37.3164 41.1029 37.2627 40.9775C37.2089 40.8521 37.1302 40.7389 37.0314 40.6449L25.5696 29.7074L37.0314 18.7743C37.1302 18.6803 37.2089 18.5671 37.2627 18.4417C37.3164 18.3163 37.3441 18.1812 37.3441 18.0448C37.3441 17.9083 37.3164 17.7732 37.2627 17.6478C37.2089 17.5224 37.1302 17.4092 37.0314 17.3152L37.0183 17.3021C36.8152 17.1082 36.5454 17 36.2648 17C35.9843 17 35.7144 17.1082 35.5114 17.3021L23.3397 28.9177C23.2327 29.0199 23.1475 29.1427 23.0892 29.2789C23.031 29.415 23.001 29.5615 23.001 29.7096C23.001 29.8577 23.031 30.0042 23.0892 30.1404C23.1475 30.2765 23.2327 30.3993 23.3397 30.5015Z" fill="#616161"/>
</svg>